<svg preserveAspectRatio="none" width="100%" height="100%" overflow="visible" style="display: block;" viewBox="0 0 24 24" fill="none" xmlns="http://www.w3.org/2000/svg">
<g id="mdi:apple-keyboard-command">
<path id="Vector" d="M18 1.84961C19.1006 1.84961 20.1563 2.28715 20.9346 3.06543C21.7128 3.84371 22.1504 4.89935 22.1504 6C22.1504 7.10065 21.7128 8.15629 20.9346 8.93457C20.1563 9.71285 19.1006 10.1504 18 10.1504H16.1504V13.8496H18C19.1006 13.8496 20.1563 14.2872 20.9346 15.0654C21.7128 15.8437 22.1504 16.8994 22.1504 18C22.1504 19.1006 21.7128 20.1563 20.9346 20.9346C20.1563 21.7128 19.1006 22.1504 18 22.1504C16.8994 22.1504 15.8437 21.7128 15.0654 20.9346C14.2872 20.1563 13.8496 19.1006 13.8496 18V16.1504H10.1504V18C10.1504 19.1006 9.71285 20.1563 8.93457 20.9346C8.15629 21.7128 7.10065 22.1504 6 22.1504C4.89935 22.1504 3.84371 21.7128 3.06543 20.9346C2.28715 20.1563 1.84961 19.1006 1.84961 18C1.84961 16.8994 2.28715 15.8437 3.06543 15.0654C3.84371 14.2872 4.89935 13.8496 6 13.8496H7.84961V10.1504H6C4.89935 10.1504 3.84371 9.71285 3.06543 8.93457C2.28715 8.15629 1.84961 7.10065 1.84961 6C1.84961 4.89935 2.28715 3.84371 3.06543 3.06543C3.84371 2.28715 4.89935 1.84961 6 1.84961C7.10065 1.84961 8.15629 2.28715 8.93457 3.06543C9.71285 3.84371 10.1504 4.89935 10.1504 6V7.84961H13.8496V6C13.8496 4.89935 14.2872 3.84371 15.0654 3.06543C15.8437 2.28715 16.8994 1.84961 18 1.84961ZM5.81738 16.1592C5.39379 16.2012 4.99503 16.3878 4.69141 16.6914C4.34446 17.0383 4.15039 17.5093 4.15039 18C4.15039 18.4907 4.34446 18.9617 4.69141 19.3086C5.03835 19.6555 5.50935 19.8496 6 19.8496C6.49065 19.8496 6.96165 19.6555 7.30859 19.3086C7.65554 18.9617 7.84961 18.4907 7.84961 18V16.1504H6L5.81738 16.1592ZM16.1504 18C16.1504 18.4907 16.3445 18.9617 16.6914 19.3086C17.0383 19.6555 17.5093 19.8496 18 19.8496C18.4907 19.8496 18.9617 19.6555 19.3086 19.3086C19.6555 18.9617 19.8496 18.4907 19.8496 18C19.8496 17.5093 19.6555 17.0383 19.3086 16.6914C18.9617 16.3445 18.4907 16.1504 18 16.1504H16.1504V18ZM10.1504 13.8496H13.8496V10.1504H10.1504V13.8496ZM18 4.15039C17.5093 4.15039 17.0383 4.34446 16.6914 4.69141C16.3445 5.03835 16.1504 5.50935 16.1504 6V7.84961H18C18.4907 7.84961 18.9617 7.65554 19.3086 7.30859C19.6555 6.96165 19.8496 6.49065 19.8496 6C19.8496 5.50935 19.6555 5.03835 19.3086 4.69141C18.9617 4.34446 18.4907 4.15039 18 4.15039ZM5.81738 4.15918C5.39379 4.20119 4.99503 4.38778 4.69141 4.69141C4.34446 5.03835 4.15039 5.50935 4.15039 6L4.15918 6.18262C4.20119 6.60621 4.38778 7.00497 4.69141 7.30859C5.03835 7.65554 5.50935 7.84961 6 7.84961H7.84961V6C7.84961 5.50935 7.65554 5.03835 7.30859 4.69141C6.96165 4.34446 6.49065 4.15039 6 4.15039L5.81738 4.15918Z" fill="var(--fill-0, #757575)" stroke="var(--stroke-0, #757575)" stroke-width="0.3"/>
</g>
</svg>
